<svg width="14" height="18" viewBox="0 0 14 18" fill="none" xmlns="http://www.w3.org/2000/svg">
<path d="M10.0646 0.613495C10.1037 0.613495 10.1427 0.613495 10.1839 0.613495C10.2797 1.79636 9.82819 2.6802 9.27947 3.32024C8.74107 3.95587 8.0038 4.57234 6.81136 4.4788C6.73182 3.31288 7.18405 2.49459 7.73202 1.85602C8.24023 1.2609 9.17194 0.73134 10.0646 0.613495Z" fill="#161B25"/>
<path d="M13.6744 12.9253C13.6744 12.9371 13.6744 12.9474 13.6744 12.9585C13.3393 13.9734 12.8613 14.8433 12.278 15.6505C11.7454 16.3834 11.0929 17.3696 9.92769 17.3696C8.92085 17.3696 8.25208 16.7222 7.2202 16.7045C6.12867 16.6868 5.5284 17.2458 4.5304 17.3865C4.41623 17.3865 4.30207 17.3865 4.19012 17.3865C3.45727 17.2804 2.86584 16.7001 2.43497 16.1771C1.16445 14.6319 0.182659 12.6359 0 10.0816C0 9.83118 0 9.5815 0 9.33107C0.0773357 7.50301 0.965591 6.01669 2.14625 5.29636C2.76935 4.91337 3.62594 4.58708 4.57974 4.73292C4.98852 4.79626 5.40613 4.9362 5.77219 5.07467C6.11909 5.20798 6.55291 5.4444 6.96389 5.43188C7.2423 5.42378 7.51924 5.27869 7.79985 5.17631C8.62182 4.87949 9.42759 4.53921 10.4897 4.69904C11.7661 4.89201 12.672 5.45914 13.2318 6.33413C12.152 7.02132 11.2984 8.05688 11.4442 9.82529C11.5738 11.4317 12.5078 12.3715 13.6744 12.9253Z" fill="#161B25"/>
</svg>
