<svg width="26" height="14" viewBox="0 0 26 14" fill="none" xmlns="http://www.w3.org/2000/svg">
<path d="M25.2513 7.3845L19.7969 12.839C19.6009 13.0678 19.2566 13.0944 19.0278 12.8984C18.799 12.7025 18.7723 12.3582 18.9683 12.1294C18.9866 12.1081 19.0065 12.0881 19.0278 12.0699L23.5495 7.5427H1.95534C1.65413 7.5427 1.40991 7.29849 1.40991 6.99723C1.40991 6.69597 1.65413 6.4518 1.95534 6.4518H23.5495L19.0278 1.93008C18.799 1.73415 18.7723 1.38981 18.9683 1.16102C19.1643 0.932224 19.5086 0.905554 19.7374 1.10153C19.7587 1.11982 19.7786 1.13969 19.7969 1.16102L25.2513 6.61548C25.4628 6.82815 25.4628 7.17174 25.2513 7.3845Z" fill="#414548" stroke="#414548"/>
</svg>
