<svg width="14" height="14" viewBox="0 0 14 14" fill="none" xmlns="http://www.w3.org/2000/svg">
<path d="M7 14C3.14005 14 0 10.86 0 7C0 3.14005 3.14005 0 7 0C10.86 0 14 3.14005 14 7C14 10.86 10.86 14 7 14ZM7 0.875C3.62251 0.875 0.875 3.62251 0.875 7C0.875 10.3775 3.62251 13.125 7 13.125C10.3775 13.125 13.125 10.3775 13.125 7C13.125 3.62251 10.3775 0.875 7 0.875Z" fill="#00AB55"/>
<path d="M6.34393 9.33328C6.23189 9.33328 6.11995 9.29077 6.03471 9.205L4.13892 7.3092C3.96802 7.1382 3.96802 6.86113 4.13892 6.69023C4.30981 6.51933 4.58688 6.51933 4.75789 6.69023L6.34447 8.27692L9.82706 4.79443C9.99796 4.62354 10.275 4.62354 10.4459 4.79443C10.6168 4.96533 10.6168 5.2424 10.4459 5.4133L6.65422 9.205C6.56792 9.29077 6.45598 9.33328 6.34393 9.33328Z" fill="#00AB55"/>
</svg>
