<svg width="29" height="29" viewBox="0 0 29 29" fill="none" xmlns="http://www.w3.org/2000/svg">
<g clip-path="url(#clip0_150_33)">
<path d="M11.5299 19.5417L15.5349 7.52635C15.6833 7.08121 15.4427 6.60005 14.9976 6.45165C14.5525 6.30331 14.0713 6.54386 13.9229 6.989L9.91784 19.0043C9.76949 19.4495 10.01 19.9306 10.4552 20.079C10.5443 20.1087 10.6349 20.1228 10.7239 20.1228C11.0796 20.1229 11.4112 19.8977 11.5299 19.5417Z" fill="#414548"/>
<path d="M17.5322 15.8142C18.9377 15.8142 20.0811 14.6708 20.0811 13.2654C20.0811 11.86 18.9377 10.7166 17.5322 10.7166C16.1268 10.7166 14.9834 11.86 14.9834 13.2654C14.9834 14.6708 16.1268 15.8142 17.5322 15.8142ZM17.5322 12.4158C18.0007 12.4158 18.3818 12.7969 18.3818 13.2654C18.3818 13.7339 18.0007 14.115 17.5322 14.115C17.0638 14.115 16.6826 13.7339 16.6826 13.2654C16.6826 12.7969 17.0638 12.4158 17.5322 12.4158Z" fill="#414548"/>
<path d="M7.91992 10.7166C6.5145 10.7166 5.37109 11.86 5.37109 13.2654C5.37109 14.6708 6.5145 15.8142 7.91992 15.8142C9.32535 15.8142 10.4687 14.6708 10.4687 13.2654C10.4687 11.86 9.3254 10.7166 7.91992 10.7166ZM7.91992 14.115C7.45145 14.115 7.07031 13.7339 7.07031 13.2654C7.07031 12.7969 7.45145 12.4158 7.91992 12.4158C8.3884 12.4158 8.76953 12.7969 8.76953 13.2654C8.76953 13.7339 8.38845 14.115 7.91992 14.115Z" fill="#414548"/>
<path d="M28.8306 10.5354L25.8679 6.5851L25.9835 5.7761C26.0212 5.51136 25.9323 5.24425 25.7431 5.05518L23.9408 3.25287L25.7431 1.45057C26.0749 1.11883 26.0749 0.580853 25.7431 0.249052C25.4113 -0.0826919 24.8734 -0.0826919 24.5416 0.249052L22.7393 2.05136L20.937 0.249052C20.7479 0.0599292 20.4808 -0.02877 20.2161 0.00872606L11.8053 1.21024C11.6234 1.23624 11.4547 1.32058 11.3247 1.45057L0.911482 11.8638C-0.303176 13.0784 -0.303176 15.0549 0.911482 16.2695L9.72267 25.0807C9.9029 25.2609 10.1002 25.4138 10.3091 25.5405V25.885C10.3091 27.6027 11.7066 29.0002 13.4243 29.0002H25.8852C27.603 29.0002 29.0005 27.6027 29.0005 25.885V11.0452C29.0005 10.8614 28.9408 10.6824 28.8306 10.5354ZM2.113 15.0679C1.56087 14.5158 1.56087 13.6175 2.113 13.0654L12.326 2.85237L20.0358 1.75099L21.5377 3.25293L20.3362 4.45445L19.7354 3.85366C19.4037 3.52192 18.8657 3.52192 18.5339 3.85366C18.2021 4.18541 18.2021 4.72338 18.5339 5.05518L20.937 7.45827C21.1029 7.62417 21.3203 7.70715 21.5377 7.70715C21.7551 7.70715 21.9726 7.62417 22.1385 7.45827C22.4703 7.12653 22.4703 6.58855 22.1385 6.25675L21.5377 5.65597L22.7392 4.45445L24.2411 5.95639L23.1397 13.6662L12.9268 23.8792C12.6593 24.1466 12.3037 24.2939 11.9255 24.2939C11.5472 24.2939 11.1916 24.1466 10.9242 23.8792L2.113 15.0679ZM27.3013 25.885C27.3013 26.6658 26.666 27.301 25.8852 27.301H13.4243C12.6787 27.301 12.0663 26.7217 12.0125 25.9896C12.781 25.9683 13.5431 25.6659 14.1282 25.0807L24.5415 14.6674C24.6715 14.5374 24.7558 14.3688 24.7818 14.1868L25.528 8.96401L27.3013 11.3284V25.885Z" fill="#414548"/>
</g>
<defs>
<clipPath id="clip0_150_33">
<rect width="29" height="29" fill="white"/>
</clipPath>
</defs>
</svg>
