<svg width="15" height="16" viewBox="0 0 15 16" fill="none" xmlns="http://www.w3.org/2000/svg">
<path d="M2.87422 0.560161C2.27285 0.227774 1.56677 0.235459 0.969238 0.564964L7.97242 7.02537L10.3251 4.67273L2.87422 0.560161Z" fill="#161B25"/>
<path d="M0.268984 1.22591C0.0979869 1.50546 0 1.82536 0 2.16447V13.8326C0 14.1611 0.0893409 14.4743 0.250731 14.7481L7.2933 7.70553L0.268984 1.22591Z" fill="#161B25"/>
<path d="M13.4443 6.39423L11.2002 5.15594L8.67847 7.67671L11.7689 10.527L13.4452 9.60186C14.0485 9.26755 14.4097 8.6681 14.4097 7.99756C14.4088 7.32703 14.0485 6.72758 13.4443 6.39423Z" fill="#161B25"/>
<path d="M7.99928 8.35684L0.9375 15.4186C1.24395 15.5935 1.58018 15.6857 1.91833 15.6857C2.24495 15.6857 2.5735 15.6031 2.87418 15.4369L10.8832 11.0169L7.99928 8.35684Z" fill="#161B25"/>
</svg>
