<svg width="30" height="26" viewBox="0 0 30 26" fill="none" xmlns="http://www.w3.org/2000/svg">
<path d="M28.6191 16.6174C28.1095 16.6174 27.6959 17.031 27.6959 17.5406V24.0029H1.84639V12.9246H12.0016C12.5112 12.9246 12.9248 12.511 12.9248 12.0014C12.9248 11.4918 12.5112 11.0782 12.0016 11.0782H1.84639V7.3854H12.0016C12.5112 7.3854 12.9248 6.9718 12.9248 6.4622C12.9248 5.95259 12.5112 5.539 12.0016 5.539H1.84639C0.827185 5.539 0 6.36619 0 7.3854V24.0029C0 25.0222 0.827185 25.8493 1.84639 25.8493H27.6959C28.7151 25.8493 29.5423 25.0222 29.5423 24.0029V17.5406C29.5423 17.031 29.1287 16.6174 28.6191 16.6174Z" fill="#161B25"/>
<path d="M8.30886 16.6171H4.61607C4.10646 16.6171 3.69287 17.0307 3.69287 17.5403C3.69287 18.0499 4.10646 18.4635 4.61607 18.4635H8.30886C8.81846 18.4635 9.23205 18.0499 9.23205 17.5403C9.23205 17.0307 8.81846 16.6171 8.30886 16.6171Z" fill="#161B25"/>
<path d="M28.9829 2.84305L22.5206 0.0734552C22.2861 -0.0244037 22.0257 -0.0244037 21.7912 0.0734552L15.3289 2.84305C14.991 2.98891 14.7712 3.32311 14.7712 3.69239V7.38518C14.7712 12.4646 16.649 15.4336 21.6971 18.3417C21.8392 18.4229 21.998 18.4635 22.1568 18.4635C22.3156 18.4635 22.4744 18.4229 22.6166 18.3417C27.6646 15.441 29.5424 12.472 29.5424 7.38518V3.69239C29.5424 3.32311 29.3227 2.98891 28.9829 2.84305ZM27.696 7.38518C27.696 11.6485 26.2854 13.9953 22.1568 16.4694C18.0283 13.9897 16.6176 11.643 16.6176 7.38518V4.3017L22.1568 1.92723L27.696 4.3017V7.38518Z" fill="#161B25"/>
<path d="M25.504 5.74013C25.107 5.42624 24.5273 5.48717 24.206 5.88415L21.3035 9.51416L20.155 7.79701C19.8688 7.37234 19.2946 7.25971 18.8755 7.54036C18.4526 7.82286 18.3363 8.39709 18.6188 8.81991L20.4652 11.5895C20.6295 11.8351 20.8991 11.9865 21.1945 12.0013C21.2075 12.0013 21.2222 12.0013 21.2333 12.0013C21.5121 12.0013 21.778 11.8757 21.9552 11.6541L25.648 7.03814C25.9656 6.63932 25.9028 6.05955 25.504 5.74013Z" fill="#161B25"/>
</svg>
